<svg xmlns="http://www.w3.org/2000/svg" xmlns:xlink="http://www.w3.org/1999/xlink" width="400" zoomAndPan="magnify" viewBox="0 0 300 119.999999" height="160" preserveAspectRatio="xMidYMid meet" version="1.2"><defs/><g id="80b432a6c8"><g style="fill:#13607c;fill-opacity:1;"><g transform="translate(10.162532, 102.149996)"><path style="stroke:none" d="M 3.484375 0 L 1.796875 0 L 1.796875 -16.3125 L 3.484375 -16.3125 L 3.484375 -8.96875 L 10.890625 -8.96875 L 10.890625 -16.3125 L 12.578125 -16.3125 L 12.578125 0 L 10.890625 0 L 10.890625 -7.296875 L 3.484375 -7.296875 Z M 3.484375 0 "/></g></g><g style="fill:#13607c;fill-opacity:1;"><g transform="translate(43.738614, 102.149996)"><path style="stroke:none" d="M 11.5 0 L 1.796875 0 L 1.796875 -16.3125 L 11.5 -16.3125 L 11.5 -14.765625 L 3.484375 -14.765625 L 3.484375 -8.953125 L 11.25 -8.953125 L 11.25 -7.375 L 3.484375 -7.375 L 3.484375 -1.5625 L 11.5 -1.5625 Z M 11.5 0 "/></g></g><g style="fill:#13607c;fill-opacity:1;"><g transform="translate(76.234694, 102.149996)"><path style="stroke:none" d="M 4.4375 -6 L 10.375 -6 L 7.421875 -13.515625 Z M 14.5625 0 L 12.75 0 L 10.984375 -4.4375 L 3.8125 -4.4375 L 2.0625 0 L 0.234375 0 L 7.421875 -17.453125 Z M 14.5625 0 "/></g></g><g style="fill:#13607c;fill-opacity:1;"><g transform="translate(110.242768, 102.149996)"><path style="stroke:none" d="M 0.484375 -14.8125 L 0.484375 -16.375 L 10.078125 -16.375 L 10.078125 -14.8125 L 6.125 -14.8125 L 6.125 -0.046875 L 4.4375 -0.046875 L 4.4375 -14.8125 Z M 0.484375 -14.8125 "/></g></g><g style="fill:#13607c;fill-opacity:1;"><g transform="translate(140.002841, 102.149996)"><path style="stroke:none" d="M 3.484375 0 L 1.796875 0 L 1.796875 -16.3125 L 3.484375 -16.3125 L 3.484375 -8.96875 L 10.890625 -8.96875 L 10.890625 -16.3125 L 12.578125 -16.3125 L 12.578125 0 L 10.890625 0 L 10.890625 -7.296875 L 3.484375 -7.296875 Z M 3.484375 0 "/></g></g><g style="fill:#13607c;fill-opacity:1;"><g transform="translate(173.578923, 102.149996)"><path style="stroke:none" d="M 16.78125 -4.984375 C 16.164062 -3.421875 15.171875 -2.164062 13.796875 -1.21875 C 12.410156 -0.25 10.882812 0.234375 9.21875 0.234375 C 6.957031 0.234375 5.03125 -0.59375 3.4375 -2.25 C 1.863281 -3.882812 1.078125 -5.847656 1.078125 -8.140625 C 1.078125 -9.273438 1.285156 -10.351562 1.703125 -11.375 C 2.117188 -12.382812 2.695312 -13.273438 3.4375 -14.046875 C 5.03125 -15.703125 6.957031 -16.53125 9.21875 -16.53125 C 10.882812 -16.53125 12.40625 -16.0625 13.78125 -15.125 C 15.15625 -14.164062 16.144531 -12.910156 16.75 -11.359375 L 14.90625 -11.359375 C 14.019531 -12.972656 12.707031 -14.039062 10.96875 -14.5625 C 10.394531 -14.726562 9.726562 -14.8125 8.96875 -14.8125 C 8.21875 -14.8125 7.453125 -14.632812 6.671875 -14.28125 C 5.890625 -13.914062 5.207031 -13.425781 4.625 -12.8125 C 3.382812 -11.519531 2.765625 -9.960938 2.765625 -8.140625 C 2.765625 -6.328125 3.382812 -4.773438 4.625 -3.484375 C 5.894531 -2.148438 7.425781 -1.484375 9.21875 -1.484375 C 10.4375 -1.484375 11.554688 -1.804688 12.578125 -2.453125 C 13.585938 -3.085938 14.367188 -3.929688 14.921875 -4.984375 Z M 16.78125 -4.984375 "/></g></g><g style="fill:#13607c;fill-opacity:1;"><g transform="translate(210.275008, 102.149996)"><path style="stroke:none" d="M 4.4375 -6 L 10.375 -6 L 7.421875 -13.515625 Z M 14.5625 0 L 12.75 0 L 10.984375 -4.4375 L 3.8125 -4.4375 L 2.0625 0 L 0.234375 0 L 7.421875 -17.453125 Z M 14.5625 0 "/></g></g><g style="fill:#13607c;fill-opacity:1;"><g transform="translate(244.283093, 102.149996)"><path style="stroke:none" d="M 3.484375 -8.0625 L 7.265625 -8.0625 C 8.210938 -8.0625 8.988281 -8.382812 9.59375 -9.03125 C 10.21875 -9.6875 10.53125 -10.492188 10.53125 -11.453125 C 10.53125 -12.390625 10.234375 -13.171875 9.640625 -13.796875 C 9.054688 -14.410156 8.265625 -14.71875 7.265625 -14.71875 L 3.484375 -14.71875 Z M 12.21875 -11.40625 C 12.21875 -9.976562 11.710938 -8.789062 10.703125 -7.84375 C 9.804688 -7.007812 8.726562 -6.554688 7.46875 -6.484375 L 12.484375 0 L 10.21875 0 L 5.453125 -6.453125 L 3.484375 -6.453125 L 3.484375 0 L 1.796875 0 L 1.796875 -16.3125 L 7.03125 -16.3125 C 8.488281 -16.3125 9.710938 -15.859375 10.703125 -14.953125 C 11.710938 -13.992188 12.21875 -12.8125 12.21875 -11.40625 Z M 12.21875 -11.40625 "/></g></g><g style="fill:#13607c;fill-opacity:1;"><g transform="translate(276.539157, 102.149996)"><path style="stroke:none" d="M 11.5 0 L 1.796875 0 L 1.796875 -16.3125 L 11.5 -16.3125 L 11.5 -14.765625 L 3.484375 -14.765625 L 3.484375 -8.953125 L 11.25 -8.953125 L 11.25 -7.375 L 3.484375 -7.375 L 3.484375 -1.5625 L 11.5 -1.5625 Z M 11.5 0 "/></g></g><g style="fill:#13607c;fill-opacity:1;"><g transform="translate(3.638959, 65.822556)"><path style="stroke:none" d="M 25.921875 -24.515625 L 50.921875 -24.515625 C 50.878906 -20.816406 50.273438 -17.410156 49.109375 -14.296875 C 47.953125 -11.191406 46.3125 -8.5 44.1875 -6.21875 C 42.0625 -3.945312 39.535156 -2.175781 36.609375 -0.90625 C 33.691406 0.363281 30.46875 1 26.9375 1 C 23.5 1 20.304688 0.398438 17.359375 -0.796875 C 14.410156 -2.003906 11.828125 -3.703125 9.609375 -5.890625 C 7.398438 -8.078125 5.691406 -10.664062 4.484375 -13.65625 C 3.285156 -16.65625 2.6875 -19.898438 2.6875 -23.390625 C 2.6875 -26.910156 3.273438 -30.15625 4.453125 -33.125 C 5.640625 -36.101562 7.316406 -38.695312 9.484375 -40.90625 C 11.648438 -43.113281 14.207031 -44.832031 17.15625 -46.0625 C 20.101562 -47.289062 23.296875 -47.90625 26.734375 -47.90625 C 30.617188 -47.90625 34.210938 -47.144531 37.515625 -45.625 C 40.828125 -44.101562 43.597656 -42.003906 45.828125 -39.328125 C 48.054688 -36.648438 49.53125 -33.546875 50.25 -30.015625 L 39.796875 -30.015625 C 38.816406 -32.554688 37.164062 -34.5625 34.84375 -36.03125 C 32.519531 -37.507812 29.882812 -38.25 26.9375 -38.25 C 24.164062 -38.25 21.726562 -37.613281 19.625 -36.34375 C 17.53125 -35.070312 15.890625 -33.332031 14.703125 -31.125 C 13.523438 -28.914062 12.9375 -26.335938 12.9375 -23.390625 C 12.9375 -20.484375 13.515625 -17.921875 14.671875 -15.703125 C 15.835938 -13.492188 17.46875 -11.765625 19.5625 -10.515625 C 21.664062 -9.265625 24.125 -8.640625 26.9375 -8.640625 C 29.96875 -8.640625 32.6875 -9.375 35.09375 -10.84375 C 37.507812 -12.320312 39.144531 -14.269531 40 -16.6875 L 25.921875 -16.6875 Z M 25.921875 -24.515625 "/></g></g><g style="fill:#13607c;fill-opacity:1;"><g transform="translate(61.054892, 65.822556)"><path style="stroke:none" d="M 15.546875 -9.453125 L 34.234375 -9.453125 L 34.234375 0 L 5.359375 0 L 5.359375 -46.90625 L 33.5 -46.90625 L 33.5 -37.515625 L 15.546875 -37.515625 L 15.546875 -28.28125 L 31.765625 -28.28125 L 31.765625 -19.09375 L 15.546875 -19.09375 Z M 15.546875 -9.453125 "/></g></g><g style="fill:#13607c;fill-opacity:1;"><g transform="translate(102.525772, 65.822556)"><path style="stroke:none" d="M 35.109375 -46.90625 L 45.03125 -46.90625 L 45.03125 0 L 36.578125 0 L 15.34375 -29.28125 L 15.34375 0 L 5.359375 0 L 5.359375 -46.90625 L 14.53125 -46.90625 L 35.109375 -18.296875 Z M 35.109375 -46.90625 "/></g></g><g style="fill:#13607c;fill-opacity:1;"><g transform="translate(156.926885, 65.822556)"><path style="stroke:none" d="M 23.109375 -46.90625 C 26.554688 -46.90625 29.726562 -46.320312 32.625 -45.15625 C 35.53125 -44 38.039062 -42.367188 40.15625 -40.265625 C 42.28125 -38.171875 43.9375 -35.703125 45.125 -32.859375 C 46.3125 -30.023438 46.90625 -26.910156 46.90625 -23.515625 C 46.90625 -20.117188 46.3125 -16.988281 45.125 -14.125 C 43.9375 -11.269531 42.28125 -8.78125 40.15625 -6.65625 C 38.039062 -4.539062 35.53125 -2.898438 32.625 -1.734375 C 29.726562 -0.578125 26.554688 0 23.109375 0 L 5.359375 0 L 5.359375 -46.90625 Z M 22.84375 -9.453125 C 25.519531 -9.453125 27.882812 -10.050781 29.9375 -11.25 C 32 -12.457031 33.609375 -14.125 34.765625 -16.25 C 35.929688 -18.375 36.515625 -20.796875 36.515625 -23.515625 C 36.515625 -26.242188 35.929688 -28.65625 34.765625 -30.75 C 33.609375 -32.851562 32 -34.492188 29.9375 -35.671875 C 27.882812 -36.859375 25.519531 -37.453125 22.84375 -37.453125 L 15.546875 -37.453125 L 15.546875 -9.453125 Z M 22.84375 -9.453125 "/></g></g><g style="fill:#13607c;fill-opacity:1;"><g transform="translate(210.591044, 65.822556)"><path style="stroke:none" d="M 15.546875 -9.453125 L 34.234375 -9.453125 L 34.234375 0 L 5.359375 0 L 5.359375 -46.90625 L 33.5 -46.90625 L 33.5 -37.515625 L 15.546875 -37.515625 L 15.546875 -28.28125 L 31.765625 -28.28125 L 31.765625 -19.09375 L 15.546875 -19.09375 Z M 15.546875 -9.453125 "/></g></g><g style="fill:#13607c;fill-opacity:1;"><g transform="translate(252.061935, 65.822556)"><path style="stroke:none" d="M 31.15625 0 L 22.046875 -16.015625 L 15.546875 -16.015625 L 15.546875 0 L 5.359375 0 L 5.359375 -46.90625 L 24.328125 -46.90625 C 27.453125 -46.90625 30.238281 -46.234375 32.6875 -44.890625 C 35.144531 -43.546875 37.085938 -41.710938 38.515625 -39.390625 C 39.953125 -37.066406 40.671875 -34.390625 40.671875 -31.359375 C 40.671875 -28.316406 39.898438 -25.597656 38.359375 -23.203125 C 36.816406 -20.816406 34.75 -19 32.15625 -17.75 L 42.546875 0 Z M 15.546875 -37.515625 L 15.546875 -25.390625 L 23.65625 -25.390625 C 25.75 -25.390625 27.398438 -25.957031 28.609375 -27.09375 C 29.816406 -28.238281 30.421875 -29.679688 30.421875 -31.421875 C 30.421875 -33.210938 29.816406 -34.675781 28.609375 -35.8125 C 27.398438 -36.945312 25.75 -37.515625 23.65625 -37.515625 Z M 15.546875 -37.515625 "/></g></g></g></svg>